<?xml version="1.0" encoding="utf-8"?>
<!DOCTYPE svg PUBLIC "-//W3C//DTD SVG 1.0//EN" "http://www.w3.org/TR/2001/REC-SVG-20010904/DTD/svg10.dtd">
<svg id="jotform_logo_svg" data-name="Jotform Logo" xmlns="http://www.w3.org/2000/svg" width="64px" height="64px" viewBox="0 0 64 64" >
<path fill="white" d="M62.66,22.8a32.17,32.17,0,0,0-15.52-19,26.08,26.08,0,0,0-5.9-2.46A31.81,31.81,0,0,0,35.11.15,32,32,0,0,0,3.4,46.35,32.54,32.54,0,0,0,15.88,59.64,32.29,32.29,0,0,0,32.07,64c.69,0,1.38,0,2.06-.07a32.31,32.31,0,0,0,17.38-6.57A32.58,32.58,0,0,0,62.22,42.55,32.19,32.19,0,0,0,62.66,22.8ZM32.64,13l3-10.25a28.93,28.93,0,0,1,4.41.88L36.81,14.43ZM24,49.53l.51-8.25,1.18,0,1.39.38,1.17.8Zm5.49-9.13-1.33-.9-2-.56-1.54-.08,1.53-24.51,5,.71L36.74,17l4.77,2.39ZM26.48,3l-2.6,9.59a2,2,0,0,0-.07.42L21.46,50.79a2.07,2.07,0,0,0,1.48,2.09A2,2,0,0,0,25.33,52L31,42.7,44.24,19.5a2.76,2.76,0,0,0,.2-.47L47.82,7A30,30,0,0,1,61.54,33.44a30,30,0,0,1-14,23.7A29.57,29.57,0,0,1,5.11,44.31a29.51,29.51,0,0,1,5.2-32.4,29.88,29.88,0,0,1,14.52-8.6C25.37,3.17,25.93,3.05,26.48,3ZM38.32,15,41.61,4.09a28.89,28.89,0,0,1,4,1.72l-3.19,11.3ZM31,12.6,26.57,12,29.1,2.66a30.91,30.91,0,0,1,4.81-.08Z" />
</svg>

